<svg xmlns="http://www.w3.org/2000/svg" xmlns:xlink="http://www.w3.org/1999/xlink" contentStyleType="text/css" data-diagram-type="DESCRIPTION" height="627px" preserveAspectRatio="none" style="width:529px;height:627px;background:#FFFFFF;" version="1.1" viewBox="0 0 529 627" width="529px" zoomAndPan="magnify"><defs/><g><!--cluster Frontend (View)--><g class="cluster" data-entity="Frontend (View)" data-source-line="8" data-uid="ent0002" id="cluster_Frontend (View)"><path d="M108.5,6 L237.4619,6 A3.75,3.75 0 0 1 239.9619,8.5 L246.9619,28.2969 L307.5,28.2969 A2.5,2.5 0 0 1 310,30.7969 L310,186.5 A2.5,2.5 0 0 1 307.5,189 L108.5,189 A2.5,2.5 0 0 1 106,186.5 L106,8.5 A2.5,2.5 0 0 1 108.5,6" fill="none" style="stroke:#000000;stroke-width:1.5;"/><line style="stroke:#000000;stroke-width:1.5;" x1="106" x2="246.9619" y1="28.2969" y2="28.2969"/><text fill="#000000" font-family="sans-serif" font-size="14" font-weight="bold" lengthAdjust="spacing" textLength="127.9619" x="110" y="20.9951">Frontend (View)</text></g><!--cluster Businesslogik (Controller + Services)--><g class="cluster" data-entity="Businesslogik (Controller + Services)" data-source-line="13" data-uid="ent0005" id="cluster_Businesslogik (Controller + Services)"><path d="M8.5,213 L302.7002,213 A3.75,3.75 0 0 1 305.2002,215.5 L312.2002,235.2969 L312.5,235.2969 A2.5,2.5 0 0 1 315,237.7969 L315,506.5 A2.5,2.5 0 0 1 312.5,509 L8.5,509 A2.5,2.5 0 0 1 6,506.5 L6,215.5 A2.5,2.5 0 0 1 8.5,213" fill="none" style="stroke:#000000;stroke-width:1.5;"/><line style="stroke:#000000;stroke-width:1.5;" x1="6" x2="312.2002" y1="235.2969" y2="235.2969"/><text fill="#000000" font-family="sans-serif" font-size="14" font-weight="bold" lengthAdjust="spacing" textLength="293.2002" x="10" y="227.9951">Businesslogik (Controller + Services)</text></g><!--cluster Model / Datenhaltung--><g class="cluster" data-entity="Model / Datenhaltung" data-source-line="19" data-uid="ent0009" id="cluster_Model / Datenhaltung"><path d="M220.5,533 L392.3096,533 A3.75,3.75 0 0 1 394.8096,535.5 L401.8096,555.2969 L401.5,555.2969 A2.5,2.5 0 0 1 404,557.7969 L404,617.5 A2.5,2.5 0 0 1 401.5,620 L220.5,620 A2.5,2.5 0 0 1 218,617.5 L218,535.5 A2.5,2.5 0 0 1 220.5,533" fill="none" style="stroke:#000000;stroke-width:1.5;"/><line style="stroke:#000000;stroke-width:1.5;" x1="218" x2="401.8096" y1="555.2969" y2="555.2969"/><text fill="#000000" font-family="sans-serif" font-size="14" font-weight="bold" lengthAdjust="spacing" textLength="170.8096" x="222" y="547.9951">Model / Datenhaltung</text></g><!--cluster Externer ETL-Prozess--><g class="cluster" data-entity="Externer ETL-Prozess" data-source-line="24" data-uid="ent0011" id="cluster_Externer ETL-Prozess"><path d="M341.5,221.5 L510.3633,221.5 A3.75,3.75 0 0 1 512.8633,224 L519.8633,243.7969 L519.5,243.7969 A2.5,2.5 0 0 1 522,246.2969 L522,506.5 A2.5,2.5 0 0 1 519.5,509 L341.5,509 A2.5,2.5 0 0 1 339,506.5 L339,224 A2.5,2.5 0 0 1 341.5,221.5" fill="none" style="stroke:#000000;stroke-width:1.5;"/><line style="stroke:#000000;stroke-width:1.5;" x1="339" x2="519.8633" y1="243.7969" y2="243.7969"/><text fill="#000000" font-family="sans-serif" font-size="14" font-weight="bold" lengthAdjust="spacing" textLength="167.8633" x="343" y="236.4951">Externer ETL-Prozess</text></g><!--entity UI--><g class="entity" data-entity="UI" data-source-line="9" data-uid="ent0003" id="entity_UI"><rect fill="#E6E6FA" height="36.2969" rx="2.5" ry="2.5" style="stroke:#000000;stroke-width:0.5;" width="156.7666" x="129.5" y="41"/><text fill="#000000" font-family="sans-serif" font-size="14" lengthAdjust="spacing" textLength="136.7666" x="139.5" y="63.9951">Web UI (HTML/CSS)</text></g><!--entity Thymeleaf--><g class="entity" data-entity="Thymeleaf" data-source-line="10" data-uid="ent0004" id="entity_Thymeleaf"><rect fill="#E6E6FA" height="36.2969" rx="2.5" ry="2.5" style="stroke:#000000;stroke-width:0.5;" width="171.9766" x="122" y="137"/><text fill="#000000" font-family="sans-serif" font-size="14" lengthAdjust="spacing" textLength="151.9766" x="132" y="159.9951">Thymeleaf Templates</text></g><!--entity Controller--><g class="entity" data-entity="Controller" data-source-line="14" data-uid="ent0006" id="entity_Controller"><rect fill="#E6E6FA" height="52.5938" rx="2.5" ry="2.5" style="stroke:#000000;stroke-width:0.5;" width="129.6348" x="143" y="248"/><text fill="#000000" font-family="sans-serif" font-size="14" lengthAdjust="spacing" textLength="109.6348" x="153" y="270.9951">REST Controller</text><text fill="#000000" font-family="sans-serif" font-size="14" lengthAdjust="spacing" textLength="92.7773" x="153" y="287.292">(Spring Boot)</text></g><!--entity Logic--><g class="entity" data-entity="Logic" data-source-line="15" data-uid="ent0007" id="entity_Logic"><rect fill="#E6E6FA" height="36.2969" rx="2.5" ry="2.5" style="stroke:#000000;stroke-width:0.5;" width="126.4287" x="145" y="361"/><text fill="#000000" font-family="sans-serif" font-size="14" lengthAdjust="spacing" textLength="106.4287" x="155" y="383.9951">Vergleichslogik</text></g><!--entity JPA--><g class="entity" data-entity="JPA" data-source-line="16" data-uid="ent0008" id="entity_JPA"><rect fill="#E6E6FA" height="36.2969" rx="2.5" ry="2.5" style="stroke:#000000;stroke-width:0.5;" width="180.7334" x="117.5" y="457"/><text fill="#000000" font-family="sans-serif" font-size="14" lengthAdjust="spacing" textLength="160.7334" x="127.5" y="479.9951">JDBC-Datenbankzugriff</text></g><!--entity DB--><g class="entity" data-entity="DB" data-source-line="20" data-uid="ent0010" id="entity_DB"><rect fill="#E6E6FA" height="36.2969" rx="2.5" ry="2.5" style="stroke:#000000;stroke-width:0.5;" width="149.9033" x="236" y="568"/><text fill="#000000" font-family="sans-serif" font-size="14" lengthAdjust="spacing" textLength="129.9033" x="246" y="590.9951">MySQL-Datenbank</text></g><!--entity Extract-Skript--><g class="entity" data-entity="Extract-Skript" data-source-line="25" data-uid="ent0012" id="entity_Extract-Skript"><rect fill="#E6E6FA" height="36.2969" rx="2.5" ry="2.5" style="stroke:#000000;stroke-width:0.5;" width="116.209" x="366" y="256.5"/><text fill="#000000" font-family="sans-serif" font-size="14" lengthAdjust="spacing" textLength="96.209" x="376" y="279.4951">Extract-Skript</text></g><!--entity Transform-Skript--><g class="entity" data-entity="Transform-Skript" data-source-line="26" data-uid="ent0013" id="entity_Transform-Skript"><rect fill="#E6E6FA" height="36.2969" rx="2.5" ry="2.5" style="stroke:#000000;stroke-width:0.5;" width="138.0088" x="355" y="361"/><text fill="#000000" font-family="sans-serif" font-size="14" lengthAdjust="spacing" textLength="118.0088" x="365" y="383.9951">Transform-Skript</text></g><!--entity Load-Skript--><g class="entity" data-entity="Load-Skript" data-source-line="27" data-uid="ent0014" id="entity_Load-Skript"><rect fill="#E6E6FA" height="36.2969" rx="2.5" ry="2.5" style="stroke:#000000;stroke-width:0.5;" width="99.8984" x="364" y="457"/><text fill="#000000" font-family="sans-serif" font-size="14" lengthAdjust="spacing" textLength="79.8984" x="374" y="479.9951">Load-Skript</text></g><!--link UI to Thymeleaf--><g class="link" data-entity-1="UI" data-entity-2="Thymeleaf" data-source-line="30" data-uid="lnk15" id="link_UI_Thymeleaf"><path d="M208,77.24 C208,94.2 208,113.95 208,130.87" fill="none" id="UI-to-Thymeleaf" style="stroke:#181818;stroke-width:1;"/><polygon fill="#181818" points="208,136.87,212,127.87,208,131.87,204,127.87,208,136.87" style="stroke:#181818;stroke-width:1;"/></g><!--link Thymeleaf to Controller--><g class="link" data-entity-1="Thymeleaf" data-entity-2="Controller" data-source-line="31" data-uid="lnk16" id="link_Thymeleaf_Controller"><path d="M208,173.09 C208,192.69 208,219.05 208,241.72" fill="none" id="Thymeleaf-to-Controller" style="stroke:#181818;stroke-width:1;"/><polygon fill="#181818" points="208,247.72,212,238.72,208,242.72,204,238.72,208,247.72" style="stroke:#181818;stroke-width:1;"/></g><!--link Controller to Logic--><g class="link" data-entity-1="Controller" data-entity-2="Logic" data-source-line="32" data-uid="lnk17" id="link_Controller_Logic"><path d="M208,301.1 C208,319.72 208,338.42 208,354.75" fill="none" id="Controller-to-Logic" style="stroke:#181818;stroke-width:1;"/><polygon fill="#181818" points="208,360.75,212,351.75,208,355.75,204,351.75,208,360.75" style="stroke:#181818;stroke-width:1;"/></g><!--link Logic to JPA--><g class="link" data-entity-1="Logic" data-entity-2="JPA" data-source-line="34" data-uid="lnk18" id="link_Logic_JPA"><path d="M208,397.24 C208,414.2 208,433.95 208,450.87" fill="none" id="Logic-to-JPA" style="stroke:#181818;stroke-width:1;"/><polygon fill="#181818" points="208,456.87,212,447.87,208,451.87,204,447.87,208,456.87" style="stroke:#181818;stroke-width:1;"/></g><!--link JPA to DB--><g class="link" data-entity-1="JPA" data-entity-2="DB" data-source-line="35" data-uid="lnk19" id="link_JPA_DB"><path d="M224.09,493.03 C243.33,513.39 271.2184,542.9097 290.5584,563.3697" fill="none" id="JPA-to-DB" style="stroke:#181818;stroke-width:1;"/><polygon fill="#181818" points="294.68,567.73,291.4044,558.4418,291.2453,564.0964,285.5907,563.9373,294.68,567.73" style="stroke:#181818;stroke-width:1;"/></g><!--link Load-Skript to DB--><g class="link" data-entity-1="Load-Skript" data-entity-2="DB" data-source-line="37" data-uid="lnk20" id="link_Load-Skript_DB"><path d="M397.91,493.03 C378.67,513.39 350.7816,542.9097 331.4416,563.3697" fill="none" id="Load-Skript-to-DB" style="stroke:#181818;stroke-width:1;"/><polygon fill="#181818" points="327.32,567.73,336.4093,563.9373,330.7547,564.0964,330.5956,558.4418,327.32,567.73" style="stroke:#181818;stroke-width:1;"/></g><!--link Transform-Skript to Load-Skript--><g class="link" data-entity-1="Transform-Skript" data-entity-2="Load-Skript" data-source-line="38" data-uid="lnk21" id="link_Transform-Skript_Load-Skript"><path d="M422.17,397.24 C420.36,414.2 418.2547,433.9837 416.4547,450.9037" fill="none" id="Transform-Skript-to-Load-Skript" style="stroke:#181818;stroke-width:1;"/><polygon fill="#181818" points="415.82,456.87,420.7496,448.3436,416.3489,451.8981,412.7945,447.4974,415.82,456.87" style="stroke:#181818;stroke-width:1;"/></g><!--link Extract-Skript to Transform-Skript--><g class="link" data-entity-1="Extract-Skript" data-entity-2="Transform-Skript" data-source-line="39" data-uid="lnk22" id="link_Extract-Skript_Transform-Skript"><path d="M424,292.89 C424,311.85 424,336.01 424,354.87" fill="none" id="Extract-Skript-to-Transform-Skript" style="stroke:#181818;stroke-width:1;"/><polygon fill="#181818" points="424,360.87,428,351.87,424,355.87,420,351.87,424,360.87" style="stroke:#181818;stroke-width:1;"/></g><!--SRC=[PL31JeD05Bpp5IzwgJ74cqSJQJ5gQAA2zQ0zRE51DooxvErMROt_xcEfBUY1x38pRtRUs5hgLf1e83TDQpHgbxgjGY3CdT2Lmi0U97Oj2lCXTGMbK7R878RXAm28H5vNP3Qwc1fb24xZo_ZovhfZ31L8FRfIB0k-Ww3bKrG89pTaj4DTm6GXyUFin9kzlk0AdkzWSflDaujfcfujGLX6EYvRRnjKA4h8i6cLS6WzUy17_j76IetMAbF96YPJVesCKaXm3YdIkypH_hxw5ASP71LlUfAsrAqU6UFw24Us6rWWSLioN_VsNf7mBMUIwVjPD0rd752lXAvtcufaMNhH_SFrAENS5AZW0hnuBPJRw6eVQhvD7vEZYn-VHSoC3E9FXwHvgpXBmWSoErvvRy0KYTo5QKsoTKjV8GbjIqFD44oCA0x_xCtzX-7LeDPZyHq-Q69GQiVq3GJ-y42tBN_-pj63qLE_wFzGdXd7-hjCB_at-GC0]--></g></svg>