<svg xmlns="http://www.w3.org/2000/svg" xmlns:xlink="http://www.w3.org/1999/xlink" contentStyleType="text/css" data-diagram-type="DESCRIPTION" height="686px" preserveAspectRatio="none" style="width:565px;height:686px;background:#FFFFFF;" version="1.1" viewBox="0 0 565 686" width="565px" zoomAndPan="magnify"><defs/><g><!--cluster Docker-Host\n(Dedizierter Server)--><g class="cluster" data-entity="Docker-Host\n(Dedizierter Server)" data-source-line="1" data-uid="ent0002" id="cluster_Docker-Host\n(Dedizierter Server)"><polygon fill="none" points="16,165,26,155,372,155,372,659,362,669,16,669,16,165" style="stroke:#181818;stroke-width:1;"/><line style="stroke:#181818;stroke-width:1;" x1="362" x2="372" y1="165" y2="155"/><line style="stroke:#181818;stroke-width:1;" x1="16" x2="362" y1="165" y2="165"/><line style="stroke:#181818;stroke-width:1;" x1="362" x2="362" y1="165" y2="669"/><text fill="#000000" font-family="sans-serif" font-size="14" font-weight="bold" lengthAdjust="spacing" textLength="97.4189" x="141.2905" y="180.9951">Docker-Host</text><text fill="#000000" font-family="sans-serif" font-size="14" font-weight="bold" lengthAdjust="spacing" textLength="158.0537" x="110.9731" y="197.292">(Dedizierter Server)</text></g><!--cluster Container: Frontend/Backend--><g class="cluster" data-entity="Container: Frontend/Backend" data-source-line="2" data-uid="ent0003" id="cluster_Container: Frontend/Backend"><polygon fill="none" points="40,229,50,219,348,219,348,468,338,478,40,478,40,229" style="stroke:#181818;stroke-width:1;"/><line style="stroke:#181818;stroke-width:1;" x1="338" x2="348" y1="229" y2="219"/><line style="stroke:#181818;stroke-width:1;" x1="40" x2="338" y1="229" y2="229"/><line style="stroke:#181818;stroke-width:1;" x1="338" x2="338" y1="229" y2="478"/><text fill="#000000" font-family="sans-serif" font-size="14" font-weight="bold" lengthAdjust="spacing" textLength="232.1895" x="73.9053" y="244.9951">Container: Frontend/Backend</text></g><!--cluster Container: DB--><g class="cluster" data-entity="Container: DB" data-source-line="7" data-uid="ent0006" id="cluster_Container: DB"><polygon fill="none" points="129,537,139,527,314,527,314,635,304,645,129,645,129,537" style="stroke:#181818;stroke-width:1;"/><line style="stroke:#181818;stroke-width:1;" x1="304" x2="314" y1="537" y2="527"/><line style="stroke:#181818;stroke-width:1;" x1="129" x2="304" y1="537" y2="537"/><line style="stroke:#181818;stroke-width:1;" x1="304" x2="304" y1="537" y2="645"/><text fill="#000000" font-family="sans-serif" font-size="14" font-weight="bold" lengthAdjust="spacing" textLength="109.9287" x="162.5356" y="552.9951">Container: DB</text></g><!--cluster lokal: ETL--><g class="cluster" data-entity="lokal: ETL" data-source-line="12" data-uid="ent0008" id="cluster_lokal: ETL"><polygon fill="none" points="396,16,406,6,548,6,548,459.5,538,469.5,396,469.5,396,16" style="stroke:#181818;stroke-width:1;"/><line style="stroke:#181818;stroke-width:1;" x1="538" x2="548" y1="16" y2="6"/><line style="stroke:#181818;stroke-width:1;" x1="396" x2="538" y1="16" y2="16"/><line style="stroke:#181818;stroke-width:1;" x1="538" x2="538" y1="16" y2="469.5"/><text fill="#000000" font-family="sans-serif" font-size="14" font-weight="bold" lengthAdjust="spacing" textLength="76.4805" x="429.7598" y="31.9951">lokal: ETL</text></g><!--entity FE2--><g class="entity" data-entity="FE2" data-source-line="3" data-uid="ent0004" id="entity_FE2"><rect fill="#E6E6FA" height="62.5938" rx="2.5" ry="2.5" style="stroke:#181818;stroke-width:0.5;" width="103.1094" x="119.5" y="259"/><rect fill="#E6E6FA" height="10" style="stroke:#181818;stroke-width:0.5;" width="15" x="202.6094" y="264"/><rect fill="#E6E6FA" height="2" style="stroke:#181818;stroke-width:0.5;" width="4" x="200.6094" y="266"/><rect fill="#E6E6FA" height="2" style="stroke:#181818;stroke-width:0.5;" width="4" x="200.6094" y="270"/><text fill="#000000" font-family="sans-serif" font-size="14" lengthAdjust="spacing" textLength="63.1094" x="134.5" y="291.9951">Frontend</text><text fill="#000000" font-family="sans-serif" font-size="14" lengthAdjust="spacing" textLength="49.8818" x="134.5" y="308.292">(HTML)</text></g><!--entity BL2--><g class="entity" data-entity="BL2" data-source-line="4" data-uid="ent0005" id="entity_BL2"><rect fill="#E6E6FA" height="62.5938" rx="2.5" ry="2.5" style="stroke:#181818;stroke-width:0.5;" width="211.4658" x="91.5" y="399"/><rect fill="#E6E6FA" height="10" style="stroke:#181818;stroke-width:0.5;" width="15" x="282.9658" y="404"/><rect fill="#E6E6FA" height="2" style="stroke:#181818;stroke-width:0.5;" width="4" x="280.9658" y="406"/><rect fill="#E6E6FA" height="2" style="stroke:#181818;stroke-width:0.5;" width="4" x="280.9658" y="410"/><text fill="#000000" font-family="sans-serif" font-size="14" lengthAdjust="spacing" textLength="104.0361" x="106.5" y="431.9951">Business-Logik</text><text fill="#000000" font-family="sans-serif" font-size="14" lengthAdjust="spacing" textLength="171.4658" x="106.5" y="448.292">(Spring Boot/Thymeleaf)</text></g><!--entity DB2--><g class="entity" data-entity="DB2" data-source-line="8" data-uid="ent0007" id="entity_DB2"><path d="M154.5,577 C154.5,567 220.9272,567 220.9272,567 C220.9272,567 287.3545,567 287.3545,577 L287.3545,618.5938 C287.3545,628.5938 220.9272,628.5938 220.9272,628.5938 C220.9272,628.5938 154.5,628.5938 154.5,618.5938 L154.5,577" fill="#E6E6FA" style="stroke:#181818;stroke-width:0.5;"/><path d="M154.5,577 C154.5,587 220.9272,587 220.9272,587 C220.9272,587 287.3545,587 287.3545,577" fill="none" style="stroke:#181818;stroke-width:0.5;"/><text fill="#000000" font-family="sans-serif" font-size="14" lengthAdjust="spacing" textLength="48.0703" x="164.5" y="603.9951">MySQL</text><text fill="#000000" font-family="sans-serif" font-size="14" lengthAdjust="spacing" textLength="112.8545" x="164.5" y="620.292">(Fahrplandaten)</text></g><!--entity Extract--><g class="entity" data-entity="Extract" data-source-line="13" data-uid="ent0009" id="entity_Extract"><rect fill="#E6E6FA" height="46.2969" rx="2.5" ry="2.5" style="stroke:#181818;stroke-width:0.5;" width="90.1416" x="423" y="46"/><rect fill="#E6E6FA" height="10" style="stroke:#181818;stroke-width:0.5;" width="15" x="493.1416" y="51"/><rect fill="#E6E6FA" height="2" style="stroke:#181818;stroke-width:0.5;" width="4" x="491.1416" y="53"/><rect fill="#E6E6FA" height="2" style="stroke:#181818;stroke-width:0.5;" width="4" x="491.1416" y="57"/><text fill="#000000" font-family="sans-serif" font-size="14" lengthAdjust="spacing" textLength="50.1416" x="438" y="78.9951">Extract</text></g><!--entity Transform--><g class="entity" data-entity="Transform" data-source-line="14" data-uid="ent0010" id="entity_Transform"><rect fill="#E6E6FA" height="46.2969" rx="2.5" ry="2.5" style="stroke:#181818;stroke-width:0.5;" width="111.9414" x="412" y="267.5"/><rect fill="#E6E6FA" height="10" style="stroke:#181818;stroke-width:0.5;" width="15" x="503.9414" y="272.5"/><rect fill="#E6E6FA" height="2" style="stroke:#181818;stroke-width:0.5;" width="4" x="501.9414" y="274.5"/><rect fill="#E6E6FA" height="2" style="stroke:#181818;stroke-width:0.5;" width="4" x="501.9414" y="278.5"/><text fill="#000000" font-family="sans-serif" font-size="14" lengthAdjust="spacing" textLength="71.9414" x="427" y="300.4951">Transform</text></g><!--entity Load--><g class="entity" data-entity="Load" data-source-line="15" data-uid="ent0011" id="entity_Load"><rect fill="#E6E6FA" height="46.2969" rx="2.5" ry="2.5" style="stroke:#181818;stroke-width:0.5;" width="73.8311" x="412" y="407.5"/><rect fill="#E6E6FA" height="10" style="stroke:#181818;stroke-width:0.5;" width="15" x="465.8311" y="412.5"/><rect fill="#E6E6FA" height="2" style="stroke:#181818;stroke-width:0.5;" width="4" x="463.8311" y="414.5"/><rect fill="#E6E6FA" height="2" style="stroke:#181818;stroke-width:0.5;" width="4" x="463.8311" y="418.5"/><text fill="#000000" font-family="sans-serif" font-size="14" lengthAdjust="spacing" textLength="33.8311" x="427" y="440.4951">Load</text></g><!--link FE2 to BL2--><g class="link" data-entity-1="FE2" data-entity-2="BL2" data-source-line="19" data-uid="lnk12" id="link_FE2_BL2"><path d="M176.77,322.13 C181.08,345 185.8279,370.214 190.1379,393.064" fill="none" id="FE2-to-BL2" style="stroke:#181818;stroke-width:1;"/><polygon fill="#181818" points="191.25,398.96,193.5125,389.3745,190.3232,394.0466,185.6511,390.8574,191.25,398.96" style="stroke:#181818;stroke-width:1;"/><text fill="#000000" font-family="sans-serif" font-size="13" lengthAdjust="spacing" textLength="130.0127" x="186" y="365.0669">HTTP (interner Port)</text></g><!--link BL2 to DB2--><g class="link" data-entity-1="BL2" data-entity-2="DB2" data-source-line="20" data-uid="lnk13" id="link_BL2_DB2"><path d="M201.46,462.24 C205.8,492.15 211.4772,531.3824 215.7872,561.0424" fill="none" id="BL2-to-DB2" style="stroke:#181818;stroke-width:1;"/><polygon fill="#181818" points="216.65,566.98,219.3142,557.4983,215.931,562.032,211.3973,558.6488,216.65,566.98" style="stroke:#181818;stroke-width:1;"/><text fill="#000000" font-family="sans-serif" font-size="13" lengthAdjust="spacing" textLength="157.936" x="209" y="507.0669">JDBC (Docker-Netzwerk)</text></g><!--link Extract to Transform--><g class="link" data-entity-1="Extract" data-entity-2="Transform" data-source-line="21" data-uid="lnk14" id="link_Extract_Transform"><path d="M468,92.25 C468,134.33 468,219.07 468,261.19" fill="none" id="Extract-to-Transform" style="stroke:#181818;stroke-width:1;"/><polygon fill="#181818" points="468,267.19,472,258.19,468,262.19,464,258.19,468,267.19" style="stroke:#181818;stroke-width:1;"/><text fill="#000000" font-family="sans-serif" font-size="13" lengthAdjust="spacing" textLength="49.1499" x="469" y="135.0669">txt-files</text></g><!--link Transform to Load--><g class="link" data-entity-1="Transform" data-entity-2="Load" data-source-line="22" data-uid="lnk15" id="link_Transform_Load"><path d="M464.95,313.67 C461.4,339.42 456.4078,375.706 452.8678,401.436" fill="none" id="Transform-to-Load" style="stroke:#181818;stroke-width:1;"/><polygon fill="#181818" points="452.05,407.38,457.2394,399.0092,452.7315,402.4267,449.314,397.9188,452.05,407.38" style="stroke:#181818;stroke-width:1;"/><text fill="#000000" font-family="sans-serif" font-size="13" lengthAdjust="spacing" textLength="76.502" x="460" y="365.0669">SQL-Skripte</text></g><!--link Load to DB2--><g class="link" data-entity-1="Load" data-entity-2="DB2" data-source-line="23" data-uid="lnk16" id="link_Load_DB2"><path d="M431.75,453.51 C417.68,470.54 396.66,494.01 375,511 C347.53,532.55 319.3175,549.1999 290.5575,564.0999" fill="none" id="Load-to-DB2" style="stroke:#181818;stroke-width:1;"/><polygon fill="#181818" points="285.23,566.86,295.0613,566.2716,289.6696,564.5599,291.3812,559.1682,285.23,566.86" style="stroke:#181818;stroke-width:1;"/><text fill="#000000" font-family="sans-serif" font-size="13" lengthAdjust="spacing" textLength="73.563" x="393" y="507.0669">SQL-Import</text></g><!--SRC=[TP4nRy8m48Lt_ufJki0G8NLWo52fRXBHAbHKoTZ59GTO2NPqTbkWwd_lEK0f5MpMlUVFxvsDhH6YrCuRf7XYdNyrWnHhlTD87WbAf0-aOGHV0i3qvWThlD86AO6S-8oc7ad505FlRG1pk-wiGUCXEbgOEwcc1PEKWpoxXPjid8tp-_z- -UwOxLnSsALk-5RPaJPBaDRwKRNQhh55jTXZPF4NyoqkHKpbCLIjl7fJZkNfjdmf69sh5NMjCgoWsIDJUOuymxQsKMq2MLLSA9fjFAcvZwuLgqWPjx2qZguO2glgwAoE27kAuxk-Q0AJgfh1GFCwYQl1p98VYY05ImYUm5Cg7s1m-CvdzBjFf6Oe3jbwusyEjlkDZnUwHITEq-09KLZcBSLbGxhpAFhHwQ4WFN9qyZy0]--></g></svg>